<svg xmlns="http://www.w3.org/2000/svg" width="180" height="40" viewBox="0 0 180 40" fill="none">
  <defs>
    <linearGradient id="brandGradient" x1="0%" y1="0%" x2="100%" y2="100%">
      <stop offset="0%" style="stop-color:#9333ea;stop-opacity:1" />
      <stop offset="100%" style="stop-color:#ec4899;stop-opacity:1" />
    </linearGradient>
  </defs>
  <!-- Icon background -->
  <rect x="2" y="2" width="36" height="36" rx="8" fill="url(#brandGradient)"/>
  <!-- Shield with music note -->
  <g transform="translate(5, 4) scale(0.33)">
    <path d="M44.516,0v47.835c-.628.592-1.894-.232-2.774-.408-10.205-2.043-21.424,7.753-16.888,18.082,5.228,11.906,24.562,7.626,26.602-4.966.158-12.344.543-24.817.231-37.18-.01-.404-.181-.761-.194-1.16.138-.314.351-.336.66-.321.458.023,2.31.729,2.842.955,4.05,1.723,9.412,6.762,9.412,11.473v4.972c0,.135-.441.687-.1.894,1.809-2.076,3.087-4.729,3.459-7.48,1.916-14.144-14.809-18.642-16.24-30.063-.068-.546-.203-1.066.494-.894,11.509,2.848,22.868,6.412,34.333,9.432,1.504.879,2.371,2.06,2.527,3.837-.747,15.337,2.184,31.696-3.436,46.306-5.899,15.337-19.374,26.415-34.03,33-1.43.642-4.278,1.969-5.692,2.264-2.548.531-7.594-1.962-10.028-3.123C16.659,84.376,1.212,67.91.153,45.855c-.49-10.206.391-20.798,0-31.045.116-1.814,1.557-3.391,3.234-3.926L43.071.047l1.445-.047Z" fill="#fff"/>
  </g>
  <!-- SafeTunes Text -->
  <text x="48" y="28" font-family="Inter, -apple-system, BlinkMacSystemFont, sans-serif" font-size="22" font-weight="700" fill="url(#brandGradient)">SafeTunes</text>
</svg>
