<?xml version="1.0" encoding="UTF-8"?>
<svg id="Layer_1" data-name="Layer 1" xmlns="http://www.w3.org/2000/svg" viewBox="0 0 139.037 125.587">
  <path d="M69.577,0v47.835c-.628.592-1.894-.232-2.774-.408-10.205-2.043-21.424,7.753-16.888,18.082,5.228,11.906,24.562,7.626,26.602-4.966.158-12.344.543-24.817.231-37.18-.01-.404-.181-.761-.194-1.16.138-.314.351-.336.66-.321.458.023,2.31.729,2.842.955,4.05,1.723,9.412,6.762,9.412,11.473v4.972c0,.135-.441.687-.1.894,1.809-2.076,3.087-4.729,3.459-7.48,1.916-14.144-14.809-18.642-16.24-30.063-.068-.546-.203-1.066.494-.894,11.509,2.848,22.868,6.412,34.333,9.432,1.504.879,2.371,2.06,2.527,3.837-.747,15.337,2.184,31.696-3.436,46.306-5.899,15.337-19.374,26.415-34.03,33-1.43.642-4.278,1.969-5.692,2.264-2.548.531-7.594-1.962-10.028-3.123-19.034-9.079-34.48-25.545-35.54-47.6-.49-10.206.391-20.798,0-31.045.116-1.814,1.557-3.391,3.234-3.926L68.131.047l1.445-.047Z"/>
  <path d="M6.683,104.878c2.196-.231,5.48.303,7.11,1.923,2.209,2.197-.302,5.049-2.549,3.94-.517-.255-.834-.868-1.395-1.189-1.173-.669-3.943-.822-4.431.627-.705,2.095,3.435,2.577,4.739,3.043,2.155.769,4.646,1.948,5.073,4.475,1.222,7.243-6.98,9.357-12.36,6.79-1.783-.851-3.986-3.032-2.222-4.957,1.982-2.163,3.519.551,4.938,1.246,1.277.625,3.874.61,4.677-.78.093-.414.088-.863-.048-1.266-.413-1.23-4.994-2.088-6.277-2.671-6.265-2.846-3.79-10.494,2.744-11.18Z"/>
  <path d="M27.607,111.583c.013-.862.878-1.513,1.689-1.597,1.948-.203,2.555.937,2.696,2.683.215,2.645.233,7.529,0,10.16-.107,1.209-.57,2.324-1.892,2.482-1.214.145-2.453-.203-2.493-1.595-.792.265-1.303,1.039-2.107,1.372-5.161,2.139-9.067-2.994-8.831-7.833.25-5.109,5.095-9.641,9.928-6.352.368.25.561.741,1.01.68ZM26.349,120.467c1.65-1.65,1.009-6.091-1.677-6.458-3.783-.517-4.501,7.211-.311,7.249.581.005,1.578-.382,1.988-.791Z"/>
  <path d="M114.329,119.141c.527,2.149,2.398,2.687,4.428,2.34,1.421-.243,3.097-2.207,4.495-.423,1.194,1.524-.422,3.083-1.824,3.691-6.82,2.959-13.984-2.494-11.483-9.892,2.728-8.067,15.577-5.876,14.531,2.797-.075.625-.702,1.487-1.297,1.487h-8.851ZM119.899,115.959c-.689-3.347-4.787-3.155-5.569,0h5.569Z"/>
  <path d="M49.289,119.141c.313,2.056,2.391,2.67,4.265,2.375.847-.133,1.59-.99,2.24-1.14,2.476-.574,3.67,2.234,1.838,3.627-1.485,1.128-4.225,1.635-6.053,1.501-9.844-.724-9.379-15.723.595-15.723,3.986,0,7.653,3.358,7.26,7.471-.073.76-.643,1.889-1.492,1.889h-8.652ZM54.858,115.959c-.56-3.308-5.113-3.202-5.569,0h5.569Z"/>
  <path d="M103.45,124.848c-.206-.186-.599-.946-.647-1.242-.373-2.3.515-5.968-.26-8.093-.702-1.926-3.143-1.848-4.095-.221-.923,1.576-.211,5.715-.426,7.729-.328,3.064-4.504,3.173-4.784.207-.25-2.639-.283-8.749.004-11.352.278-2.525,4.154-2.598,4.48-.096,2.723-3.028,8.025-2.53,9.395,1.547.599,1.782.723,8.138.405,10.043-.313,1.874-2.789,2.635-4.07,1.478Z"/>
  <path d="M86.084,123.715l-.294.002c-2.708,2.944-7.914,2.131-9.151-1.792-.501-1.587-.507-8.213-.305-10.049.289-2.63,4.289-2.505,4.585,0,.234,1.972-.614,7.421.686,8.662.832.794,2.393.804,3.279.086,1.717-1.389.744-6.607.998-8.748.292-2.471,4.315-2.836,4.587.395.304,3.596-.205,7.656-.053,11.3-.468,2.279-3.929,2.44-4.333.144Z"/>
  <path d="M69.975,109.594v14.022c0,.409-.842,1.37-1.244,1.54-1.278.54-2.852.078-3.441-1.231l-.078-13.646-.308-.686h-4.177c-.622,0-1.417-1.001-1.496-1.685-.197-1.703.387-2.554,2.085-2.698,3.209-.273,9.348-.284,12.549-.002,1.807.159,2.681,1.793,1.764,3.375-.138.238-.983,1.011-1.177,1.011h-4.475Z"/>
  <path d="M137.938,114.307c-1.92,1.78-4.489-1.883-6.582-.516-2.208,1.442,3.015,2.08,3.661,2.265,1.832.524,3.675,1.51,3.959,3.599.813,5.979-6.807,6.908-10.923,4.956-1.439-.682-2.51-1.732-1.839-3.43,1.875-2.454,3.695.347,5.916.549,1.139.103,2.516-.222,1.966-1.614-3.205-1.162-8.468-1.253-7.816-6.03.627-4.591,7.287-5.022,10.66-3.334,1.375.688,2.352,2.3.998,3.555Z"/>
  <path d="M40.339,123.616c-.449,2.209-4.511,2.608-4.781-.589-.224-2.64.181-5.59.009-8.263-3.332.539-3.302-4.474,0-3.976-.283-3.13,1.199-6.056,4.525-6.514,1.842-.253,5.088.14,4.293,2.7-.634,2.041-2.507.714-3.466,1.508-.604.5-.615,1.586-.58,2.306,4.853-.91,4.755,4.896,0,3.977v8.851Z"/>
</svg>