<?xml version="1.0" encoding="UTF-8"?>
<svg id="Layer_1" data-name="Layer 1" xmlns="http://www.w3.org/2000/svg" viewBox="0 0 203.87 203.87">
  <path d="M203.87,0v203.87H0V0h203.87ZM102.04,39.18l-1.45.05-39.68,10.84c-1.68.54-3.12,2.11-3.23,3.93.39,10.25-.49,20.84,0,31.05,1.06,22.05,16.51,38.52,35.54,47.6,2.43,1.16,7.48,3.65,10.03,3.12,1.41-.29,4.26-1.62,5.69-2.26,14.66-6.58,28.13-17.66,34.03-33,5.62-14.61,2.69-30.97,3.44-46.31-.16-1.78-1.02-2.96-2.53-3.84-11.47-3.02-22.82-6.58-34.33-9.43-.7-.17-.56.35-.49.89,1.43,11.42,18.16,15.92,16.24,30.06-.37,2.75-1.65,5.4-3.46,7.48-.34-.21.1-.76.1-.89v-4.97c0-4.71-5.36-9.75-9.41-11.47-.53-.23-2.38-.93-2.84-.96-.31-.02-.52,0-.66.32.01.4.18.76.19,1.16.31,12.36-.07,24.84-.23,37.18-2.04,12.59-21.37,16.87-26.6,4.97-4.54-10.33,6.68-20.12,16.89-18.08.88.18,2.15,1,2.77.41v-47.84ZM72.8,162.8v-8.85c4.75.92,4.85-4.89,0-3.98-.03-.72-.02-1.81.58-2.31.96-.79,2.83.53,3.47-1.51.8-2.56-2.45-2.95-4.29-2.7-3.33.46-4.81,3.38-4.53,6.51-3.3-.5-3.33,4.52,0,3.98.17,2.67-.23,5.62,0,8.26.27,3.2,4.33,2.8,4.78.59ZM39.14,144.06c-6.53.69-9.01,8.33-2.74,11.18,1.28.58,5.86,1.44,6.28,2.67.14.4.14.85.05,1.27-.8,1.39-3.4,1.4-4.68.78-1.42-.69-2.96-3.41-4.94-1.25-1.76,1.93.44,4.11,2.22,4.96,5.38,2.57,13.58.45,12.36-6.79-.43-2.53-2.92-3.71-5.07-4.47-1.3-.47-5.44-.95-4.74-3.04.49-1.45,3.26-1.3,4.43-.63.56.32.88.93,1.4,1.19,2.25,1.11,4.76-1.74,2.55-3.94-1.63-1.62-4.91-2.15-7.11-1.92ZM102.43,148.78h4.48c.19,0,1.04-.77,1.18-1.01.92-1.58.04-3.22-1.76-3.38-3.2-.28-9.34-.27-12.55,0-1.7.14-2.28,1-2.08,2.7.08.68.87,1.69,1.5,1.69h4.18l.31.69.08,13.65c.59,1.31,2.16,1.77,3.44,1.23.4-.17,1.24-1.13,1.24-1.54v-14.02ZM60.07,150.77c-.45.06-.64-.43-1.01-.68-4.83-3.29-9.68,1.24-9.93,6.35-.24,4.84,3.67,9.97,8.83,7.83.8-.33,1.31-1.11,2.11-1.37.04,1.39,1.28,1.74,2.49,1.59,1.32-.16,1.79-1.27,1.89-2.48.23-2.63.21-7.51,0-10.16-.14-1.75-.75-2.89-2.7-2.68-.81.08-1.68.74-1.69,1.6ZM81.75,158.32h8.65c.85,0,1.42-1.13,1.49-1.89.39-4.11-3.27-7.47-7.26-7.47-9.97,0-10.44,15-.59,15.72,1.83.13,4.57-.37,6.05-1.5,1.83-1.39.64-4.2-1.84-3.63-.65.15-1.39,1.01-2.24,1.14-1.87.29-3.95-.32-4.26-2.38ZM135.91,164.03c1.28,1.16,3.76.4,4.07-1.48s.19-8.26-.4-10.04c-1.37-4.08-6.67-4.57-9.39-1.55-.33-2.5-4.2-2.43-4.48.1s-.25,8.71,0,11.35c.28,2.97,4.46,2.86,4.78-.21.22-2.01-.5-6.15.43-7.73s3.39-1.7,4.1.22c.78,2.13-.11,5.79.26,8.09.05.3.44,1.06.65,1.24ZM146.79,158.32h8.85c.59,0,1.22-.86,1.3-1.49,1.05-8.67-11.8-10.86-14.53-2.8-2.5,7.4,4.66,12.85,11.48,9.89,1.4-.61,3.02-2.17,1.82-3.69-1.4-1.78-3.07.18-4.49.42-2.03.35-3.9-.19-4.43-2.34ZM170.4,153.49c1.35-1.26.38-2.87-1-3.56-3.37-1.69-10.03-1.26-10.66,3.33s4.61,4.87,7.82,6.03c.55,1.39-.83,1.72-1.97,1.61-2.22-.2-4.04-3-5.92-.55-.67,1.7.4,2.75,1.84,3.43,4.12,1.95,11.74,1.02,10.92-4.96-.28-2.09-2.13-3.08-3.96-3.6-.65-.18-5.87-.82-3.66-2.27,2.09-1.37,4.66,2.3,6.58.52ZM118.54,162.9c.4,2.3,3.86,2.13,4.33-.14-.15-3.64.36-7.7.05-11.3-.27-3.23-4.29-2.87-4.59-.39-.25,2.14.72,7.36-1,8.75-.89.72-2.45.71-3.28-.09-1.3-1.24-.45-6.69-.69-8.66-.3-2.5-4.3-2.63-4.59,0-.2,1.84-.2,8.46.3,10.05,1.24,3.92,6.44,4.74,9.15,1.79h.29Z" fill="#fff"/>
  <path d="M102.04,39.18v47.84c-.63.59-1.89-.23-2.77-.41-10.2-2.04-21.42,7.75-16.89,18.08,5.23,11.91,24.56,7.63,26.6-4.97.16-12.34.54-24.82.23-37.18-.01-.4-.18-.76-.19-1.16.14-.31.35-.34.66-.32.46.02,2.31.73,2.84.96,4.05,1.72,9.41,6.76,9.41,11.47v4.97c0,.13-.44.69-.1.89,1.81-2.08,3.09-4.73,3.46-7.48,1.92-14.14-14.81-18.64-16.24-30.06-.07-.55-.2-1.07.49-.89,11.51,2.85,22.87,6.41,34.33,9.43,1.5.88,2.37,2.06,2.53,3.84-.75,15.34,2.18,31.7-3.44,46.31-5.9,15.34-19.37,26.42-34.03,33-1.43.64-4.28,1.97-5.69,2.26-2.55.53-7.59-1.96-10.03-3.12-19.03-9.08-34.48-25.55-35.54-47.6-.49-10.21.39-20.8,0-31.05.12-1.81,1.56-3.39,3.23-3.93l39.68-10.84,1.45-.05Z"/>
  <path d="M39.14,144.06c2.2-.23,5.48.3,7.11,1.92,2.21,2.2-.3,5.05-2.55,3.94-.52-.26-.83-.87-1.4-1.19-1.17-.67-3.94-.82-4.43.63-.7,2.09,3.43,2.58,4.74,3.04,2.16.77,4.65,1.95,5.07,4.47,1.22,7.24-6.98,9.36-12.36,6.79-1.78-.85-3.99-3.03-2.22-4.96,1.98-2.16,3.52.55,4.94,1.25,1.28.62,3.87.61,4.68-.78.09-.41.09-.86-.05-1.27-.41-1.23-4.99-2.09-6.28-2.67-6.26-2.85-3.79-10.49,2.74-11.18Z"/>
  <path d="M60.07,150.77c.01-.86.88-1.51,1.69-1.6,1.95-.2,2.55.94,2.7,2.68.21,2.64.23,7.53,0,10.16-.11,1.21-.57,2.32-1.89,2.48-1.21.14-2.45-.2-2.49-1.59-.79.26-1.3,1.04-2.11,1.37-5.16,2.14-9.07-2.99-8.83-7.83.25-5.11,5.09-9.64,9.93-6.35.37.25.56.74,1.01.68ZM58.81,159.65c1.65-1.65,1.01-6.09-1.68-6.46-3.78-.52-4.5,7.21-.31,7.25.58,0,1.58-.38,1.99-.79Z"/>
  <path d="M146.79,158.32c.53,2.15,2.4,2.69,4.43,2.34,1.42-.24,3.1-2.21,4.49-.42,1.19,1.52-.42,3.08-1.82,3.69-6.82,2.96-13.98-2.49-11.48-9.89,2.73-8.07,15.58-5.88,14.53,2.8-.08.63-.7,1.49-1.3,1.49h-8.85ZM152.36,155.14c-.69-3.35-4.79-3.16-5.57,0h5.57Z"/>
  <path d="M81.75,158.32c.31,2.06,2.39,2.67,4.26,2.38.85-.13,1.59-.99,2.24-1.14,2.48-.57,3.67,2.23,1.84,3.63-1.48,1.13-4.22,1.64-6.05,1.5-9.84-.72-9.38-15.72.59-15.72,3.99,0,7.65,3.36,7.26,7.47-.07.76-.64,1.89-1.49,1.89h-8.65ZM87.32,155.14c-.56-3.31-5.11-3.2-5.57,0h5.57Z"/>
  <path d="M135.91,164.03c-.21-.19-.6-.95-.65-1.24-.37-2.3.51-5.97-.26-8.09-.7-1.93-3.14-1.85-4.1-.22s-.21,5.71-.43,7.73c-.33,3.06-4.5,3.17-4.78.21-.25-2.64-.28-8.75,0-11.35s4.15-2.6,4.48-.1c2.72-3.03,8.03-2.53,9.39,1.55.6,1.78.72,8.14.4,10.04s-2.79,2.64-4.07,1.48Z"/>
  <path d="M118.54,162.9h-.29c-2.71,2.95-7.91,2.13-9.15-1.79-.5-1.59-.51-8.21-.3-10.05.29-2.63,4.29-2.5,4.59,0,.23,1.97-.61,7.42.69,8.66.83.79,2.39.8,3.28.09,1.72-1.39.74-6.61,1-8.75.29-2.47,4.31-2.84,4.59.39.3,3.6-.2,7.66-.05,11.3-.47,2.28-3.93,2.44-4.33.14Z"/>
  <path d="M102.43,148.78v14.02c0,.41-.84,1.37-1.24,1.54-1.28.54-2.85.08-3.44-1.23l-.08-13.65-.31-.69h-4.18c-.62,0-1.42-1-1.5-1.69-.2-1.7.39-2.55,2.08-2.7,3.21-.27,9.35-.28,12.55,0,1.81.16,2.68,1.79,1.76,3.38-.14.24-.98,1.01-1.18,1.01h-4.48Z"/>
  <path d="M170.4,153.49c-1.92,1.78-4.49-1.88-6.58-.52-2.21,1.44,3.02,2.08,3.66,2.27,1.83.52,3.68,1.51,3.96,3.6.81,5.98-6.81,6.91-10.92,4.96-1.44-.68-2.51-1.73-1.84-3.43,1.87-2.45,3.69.35,5.92.55,1.14.1,2.52-.22,1.97-1.61-3.2-1.16-8.47-1.25-7.82-6.03s7.29-5.02,10.66-3.33c1.37.69,2.35,2.3,1,3.56Z"/>
  <path d="M72.8,162.8c-.45,2.21-4.51,2.61-4.78-.59-.22-2.64.18-5.59,0-8.26-3.33.54-3.3-4.47,0-3.98-.28-3.13,1.2-6.06,4.53-6.51,1.84-.25,5.09.14,4.29,2.7-.63,2.04-2.51.71-3.47,1.51-.6.5-.61,1.59-.58,2.31,4.85-.91,4.76,4.9,0,3.98v8.85Z"/>
  <path d="M58.81,159.65c-.41.41-1.41.8-1.99.79-4.19-.04-3.47-7.77.31-7.25,2.69.37,3.33,4.81,1.68,6.46Z" fill="#fff"/>
  <path d="M152.36,155.14h-5.57c.78-3.16,4.88-3.35,5.57,0Z" fill="#fff"/>
  <path d="M87.32,155.14h-5.57c.46-3.2,5.01-3.31,5.57,0Z" fill="#fff"/>
</svg>